<?xml version="1.0" encoding="UTF-8" standalone="no"?>
<!-- Created with Inkscape (http://www.inkscape.org/) -->

<svg
   width="93.936272mm"
   height="98.782394mm"
   viewBox="0 0 93.936272 98.782394"
   version="1.1"
   id="svg1"
   xml:space="preserve"
   xmlns:inkscape="http://www.inkscape.org/namespaces/inkscape"
   xmlns:sodipodi="http://sodipodi.sourceforge.net/DTD/sodipodi-0.dtd"
   xmlns="http://www.w3.org/2000/svg"
   xmlns:svg="http://www.w3.org/2000/svg"><sodipodi:namedview
     id="namedview1"
     pagecolor="#ffffff"
     bordercolor="#000000"
     borderopacity="0.25"
     inkscape:showpageshadow="2"
     inkscape:pageopacity="0.0"
     inkscape:pagecheckerboard="0"
     inkscape:deskcolor="#d1d1d1"
     inkscape:document-units="mm"
     showgrid="false"
     inkscape:zoom="1.4878904"
     inkscape:cx="-37.637182"
     inkscape:cy="195.91497"
     inkscape:window-width="3440"
     inkscape:window-height="1377"
     inkscape:window-x="-8"
     inkscape:window-y="-8"
     inkscape:window-maximized="1"
     inkscape:current-layer="layer1" /><defs
     id="defs1" /><g
     inkscape:label="Ebene 1"
     inkscape:groupmode="layer"
     id="layer1"
     transform="translate(-63.244379,-104.05163)"><g
       id="g6879"
       style="display:inline"><path
         style="display:inline;fill:#faf567"
         d="m 109.45827,202.80373 -4.40972,-0.0302 -2.64584,-0.48137 c -1.45521,-0.26476 -4.074582,-0.89533 -5.820832,-1.40127 l -3.175001,-0.9199 -3.304688,-1.56296 -3.304688,-1.56297 -2.692535,-1.82012 c -1.480894,-1.00107 -3.995493,-2.90958 -5.587999,-4.24114 l -2.895464,-2.42102 -2.484397,-2.81937 c -1.366419,-1.55066 -2.484397,-2.97712 -2.484397,-3.16992 0,-0.19279 0.138996,-0.35053 0.308881,-0.35053 0.169885,0 1.241448,0.41558 2.38125,0.92352 1.139803,0.50793 2.945494,1.20832 4.012647,1.55641 1.067153,0.34809 3.081937,0.80564 4.477298,1.01676 l 2.53702,0.38386 h 5.327159 5.327159 l 2.719155,-0.54621 c 1.495536,-0.30041 3.751032,-0.87662 5.012212,-1.28046 1.26118,-0.40384 3.56306,-1.33508 5.11528,-2.06943 1.55222,-0.73435 4.01285,-2.11536 5.46805,-3.06891 1.45521,-0.95355 3.63181,-2.59433 4.83688,-3.64617 1.20508,-1.05184 3.07939,-3.00811 4.16515,-4.34728 1.08575,-1.33917 2.83353,-3.89516 3.88396,-5.67998 1.05042,-1.78482 2.40658,-4.48563 3.01368,-6.0018 0.6071,-1.51617 1.4958,-4.2783 1.97489,-6.13808 l 0.87106,-3.3814 0.18863,-4.7625 0.18862,-4.7625 -0.56546,-3.43495 -0.56547,-3.43494 -1.06065,-3.31116 -1.06066,-3.31116 -1.42767,-2.59726 c -0.78521,-1.4285 -2.25266,-3.68248 -3.261,-5.00885 l -1.83334,-2.41159 -2.43772,-2.11893 c -1.34075,-1.16541 -3.60294,-2.90521 -5.02709,-3.86622 -1.42415,-0.961 -2.58936,-1.84511 -2.58936,-1.96469 v -0.2174 l 2.66346,0.22515 2.66347,0.22514 2.83181,0.72303 c 1.55749,0.39766 4.01617,1.1935 5.46372,1.76853 1.44755,0.57503 3.61812,1.54156 4.82348,2.14785 1.20536,0.6063 3.61392,2.074 5.35237,3.26156 l 3.1608,2.15922 3.88785,3.64324 3.88785,3.64325 1.19838,1.64842 c 0.65911,0.90663 2.05262,3.42521 3.0967,5.59684 l 1.89831,3.94842 1.20557,3.6363 1.20557,3.63631 0.60402,3.67429 0.60402,3.6743 -0.20907,5.32154 -0.20908,5.32154 -0.69934,2.99861 c -0.38464,1.64923 -1.1018,4.16435 -1.59368,5.58915 -0.49189,1.4248 -1.69069,4.10323 -2.66401,5.95207 -0.97332,1.84884 -2.68185,4.62843 -3.79673,6.17687 l -2.02706,2.81534 -3.39816,3.26164 -3.39817,3.26164 -3.00283,1.99802 -3.00283,1.99801 -3.38757,1.58302 -3.38758,1.58302 -3.08275,0.89335 c -1.69552,0.49134 -4.51624,1.12585 -6.26828,1.41002 l -3.18552,0.51668 z m -25.223616,-18.43866 -3.175,0.0953 -2.293056,-0.51513 c -1.26118,-0.28332 -2.509372,-0.5955 -2.773759,-0.69375 l -0.480704,-0.17862 0.400421,-0.48248 0.400421,-0.48247 1.001166,-0.20024 1.001166,-0.20023 1.123058,-0.94499 1.123059,-0.94499 0.652569,-1.27914 0.652569,-1.27915 0.382271,-3.12516 0.38227,-3.12517 0.859047,-1.8764 0.859048,-1.87641 -3.055884,0.19414 -3.055884,0.19413 -2.469445,-0.61307 -2.469445,-0.61306 -2.998611,-1.54528 -2.998612,-1.54528 -2.008009,-1.67667 c -1.104405,-0.92217 -2.017218,-1.85755 -2.028472,-2.07861 l -0.02046,-0.40193 2.941611,0.18352 2.941611,0.18352 1.379917,-0.45468 1.379917,-0.45467 3.179989,-3.06966 3.179989,-3.06965 1.494317,-0.76235 c 0.821874,-0.41929 1.494317,-0.84413 1.494317,-0.9441 0,-0.1 -0.743481,-0.50045 -1.652179,-0.88996 -0.908698,-0.38951 -2.625765,-1.40294 -3.815703,-2.25206 l -2.163524,-1.54386 -1.44165,-1.88054 c -0.792907,-1.0343 -2.017628,-2.93453 -2.721601,-4.22275 -0.703973,-1.28821 -1.671914,-3.34238 -2.150981,-4.56481 -0.479067,-1.22242 -0.87103,-2.35124 -0.87103,-2.50848 0,-0.15724 0.153226,-0.28589 0.340502,-0.28589 0.187277,0 0.867061,0.46233 1.510633,1.02739 0.643572,0.56506 1.94274,1.43819 2.887041,1.94028 l 1.716909,0.91289 2.152319,-2.9e-4 2.152319,-2.9e-4 2.645834,-0.56109 2.645833,-0.56108 2.037432,0.20412 c 1.120588,0.11227 2.458359,0.30977 2.972825,0.4389 l 0.935392,0.23476 -0.723281,-1.02404 c -0.397804,-0.56323 -1.208297,-1.98924 -1.801094,-3.16892 l -1.077814,-2.14488 -0.566961,-2.18798 -0.566962,-2.18797 -0.0123,-4.31476 -0.0123,-4.31476 0.414189,-2.37845 0.414188,-2.37844 0.314758,-0.19453 0.314758,-0.19453 0.406901,0.99003 c 0.223796,0.54452 0.833054,1.94359 1.353907,3.10905 l 0.947006,2.11902 1.205232,1.20592 1.205233,1.20591 4.056945,1.90209 4.056945,1.90209 1.146528,1.10398 1.146525,1.10399 0.005,-2.62684 0.005,-2.62685 0.5335,-2.29305 0.53349,-2.29306 1.58349,-3.175 1.5835,-3.175 2.46642,-3.0868 2.46642,-3.08681 h 0.56778 0.56778 l -0.21078,0.97014 c -0.11593,0.53357 -0.31562,2.18621 -0.44375,3.67252 l -0.23297,2.70239 0.40642,1.61405 0.40642,1.61404 1.6719,2.56582 c 0.91954,1.41119 1.93179,3.19942 2.24944,3.97384 0.31764,0.77442 0.72477,1.7919 0.90473,2.26106 l 0.32719,0.85303 0.83446,-1.38219 c 0.45896,-0.76021 1.29548,-1.97751 1.85894,-2.70512 l 1.02448,-1.32291 h 0.64161 0.64161 l 1.30754,1.96988 c 0.71914,1.08344 2.06696,3.58375 2.99514,5.55625 0.92819,1.9725 2.01097,4.63859 2.40618,5.92464 0.39522,1.28605 0.88846,3.55973 1.09611,5.05261 0.20764,1.49289 0.37659,3.93317 0.37545,5.42284 l -0.002,2.7085 -0.50817,3.35139 c -0.27949,1.84327 -0.847,4.46264 -1.26112,5.82084 l -0.75295,2.46944 -0.85347,1.31535 c -0.46941,0.72345 -0.85347,1.58374 -0.85347,1.91176 0,0.32802 -0.49625,1.48236 -1.10277,2.5652 -0.60653,1.08284 -1.66505,2.76255 -2.35228,3.73269 -0.68723,0.97014 -2.85763,3.35812 -4.8231,5.30662 l -3.57359,3.54273 -2.7263,1.82346 c -1.49947,1.00291 -3.76391,2.31867 -5.03209,2.92391 -1.26818,0.60525 -3.43501,1.48453 -4.81517,1.95395 -1.380166,0.46942 -2.782102,0.8535 -3.115414,0.8535 h -0.606023 l -0.214132,-0.55802 c -0.117773,-0.30691 -0.2163,-1.06097 -0.218949,-1.67569 -0.0027,-0.61473 -0.100725,-1.47558 -0.217946,-1.913 l -0.213128,-0.79533 -2.222204,2.07876 -2.222204,2.07877 -2.057768,0.9865 -2.057767,0.98651 z"
         id="path6891" /><path
         style="display:inline;fill:#9eb1c0"
         d="m 109.45827,202.80373 -4.40972,-0.0302 -2.64584,-0.48137 c -1.45521,-0.26476 -4.074582,-0.89533 -5.820832,-1.40127 l -3.175001,-0.9199 -3.304688,-1.56296 -3.304688,-1.56297 -2.692535,-1.82012 c -1.480894,-1.00107 -3.995493,-2.90958 -5.587999,-4.24114 l -2.895464,-2.42102 -2.484397,-2.81937 c -1.366419,-1.55066 -2.484397,-2.97712 -2.484397,-3.16992 0,-0.19279 0.138996,-0.35053 0.308881,-0.35053 0.169885,0 1.241448,0.41558 2.38125,0.92352 1.139803,0.50793 2.945494,1.20832 4.012647,1.55641 1.067153,0.34809 3.081937,0.80564 4.477298,1.01676 l 2.53702,0.38386 h 5.327159 5.327159 l 2.719155,-0.54621 c 1.495536,-0.30041 3.751032,-0.87662 5.012212,-1.28046 1.26118,-0.40384 3.56306,-1.33508 5.11528,-2.06943 1.55222,-0.73435 4.01285,-2.11536 5.46805,-3.06891 1.45521,-0.95355 3.63181,-2.59433 4.83688,-3.64617 1.20508,-1.05184 3.07939,-3.00811 4.16515,-4.34728 1.08575,-1.33917 2.83353,-3.89516 3.88396,-5.67998 1.05042,-1.78482 2.40658,-4.48563 3.01368,-6.0018 0.6071,-1.51617 1.4958,-4.2783 1.97489,-6.13808 l 0.87106,-3.3814 0.18863,-4.7625 0.18862,-4.7625 -0.56546,-3.43495 -0.56547,-3.43494 -1.06065,-3.31116 -1.06066,-3.31116 -1.42767,-2.59726 c -0.78521,-1.4285 -2.25266,-3.68248 -3.261,-5.00885 l -1.83334,-2.41159 -2.43772,-2.11893 c -1.34075,-1.16541 -3.60294,-2.90521 -5.02709,-3.86622 -1.42415,-0.961 -2.58936,-1.84511 -2.58936,-1.96469 v -0.2174 l 2.66346,0.22515 2.66347,0.22514 2.83181,0.72303 c 1.55749,0.39766 4.01617,1.1935 5.46372,1.76853 1.44755,0.57503 3.61812,1.54156 4.82348,2.14785 1.20536,0.6063 3.61392,2.074 5.35237,3.26156 l 3.1608,2.15922 3.88785,3.64324 3.88785,3.64325 1.19838,1.64842 c 0.65911,0.90663 2.05262,3.42521 3.0967,5.59684 l 1.89831,3.94842 1.20557,3.6363 1.20557,3.63631 0.60402,3.67429 0.60402,3.6743 -0.20907,5.32154 -0.20908,5.32154 -0.69934,2.99861 c -0.38464,1.64923 -1.1018,4.16435 -1.59368,5.58915 -0.49189,1.4248 -1.69069,4.10323 -2.66401,5.95207 -0.97332,1.84884 -2.68185,4.62843 -3.79673,6.17687 l -2.02706,2.81534 -3.39816,3.26164 -3.39817,3.26164 -3.00283,1.99802 -3.00283,1.99801 -3.38757,1.58302 -3.38758,1.58302 -3.08275,0.89335 c -1.69552,0.49134 -4.51624,1.12585 -6.26828,1.41002 l -3.18552,0.51668 z m -25.223616,-18.43866 -3.175,0.0953 -2.293056,-0.51513 c -1.26118,-0.28332 -2.509372,-0.5955 -2.773759,-0.69375 l -0.480704,-0.17862 0.400421,-0.48248 0.400421,-0.48247 1.001166,-0.20024 1.001166,-0.20023 1.123058,-0.94499 1.123059,-0.94499 0.652569,-1.27914 0.652569,-1.27915 0.382271,-3.12516 0.38227,-3.12517 0.859047,-1.8764 0.859048,-1.87641 -3.055884,0.19414 -3.055884,0.19413 -2.469445,-0.61307 -2.469445,-0.61306 -2.998611,-1.54528 -2.998612,-1.54528 -2.008009,-1.67667 c -1.104405,-0.92217 -2.017218,-1.85299 -2.028472,-2.06849 l -0.02046,-0.39182 3.282882,0.17172 3.282883,0.17172 1.215035,-0.62042 1.215034,-0.62041 3.046075,-2.92439 3.046076,-2.92439 1.678082,-0.85282 1.678083,-0.85283 -2.340936,-1.09545 c -1.287514,-0.60251 -2.935448,-1.54078 -3.662074,-2.08506 -0.726626,-0.54428 -1.769067,-1.46584 -2.316535,-2.04793 -0.547468,-0.58208 -1.712227,-2.12981 -2.588354,-3.43939 l -1.592958,-2.38106 -1.384146,-3.23847 c -0.761281,-1.78116 -1.384147,-3.36875 -1.384147,-3.52797 0,-0.15922 0.15875,-0.2895 0.352778,-0.2895 0.194027,0 0.645832,0.29306 1.00401,0.65124 0.358179,0.35817 1.379487,1.15228 2.269575,1.76468 l 1.618342,1.11345 1.802917,0.41616 1.802918,0.41616 3.071258,-0.62322 3.071259,-0.62323 2.822222,0.15048 c 1.552223,0.0828 3.217719,0.28349 3.701103,0.44606 l 0.878879,0.29559 -0.614904,-0.85715 c -0.338197,-0.47144 -1.251534,-2.08774 -2.029638,-3.59177 l -1.414735,-2.73462 -0.519721,-2.20427 -0.519722,-2.20428 0.01773,-3.70417 0.01773,-3.70416 0.418026,-2.82223 0.418026,-2.82222 h 0.293384 0.293383 l 1.082539,2.80383 1.082538,2.80383 1.62269,1.61657 1.622689,1.61656 3.508871,1.50757 3.508872,1.50757 1.606407,1.48037 1.606406,1.48037 0.19615,-4.23334 0.19616,-4.23333 1.0972,-2.56879 c 0.60346,-1.41284 1.81174,-3.71472 2.68507,-5.11528 0.87333,-1.40057 2.45725,-3.49899 3.51982,-4.66315 1.06257,-1.16417 2.01443,-2.03729 2.11524,-1.94028 0.10082,0.097 0.0452,0.89076 -0.1235,1.76389 -0.16874,0.87312 -0.31023,2.8575 -0.31441,4.40972 l -0.008,2.82222 0.71555,1.57747 c 0.39356,0.86761 1.08218,2.05823 1.53028,2.64583 0.4481,0.58761 1.31324,2.05603 1.92253,3.26317 l 1.10781,2.1948 v 0.89201 0.892 h 0.30264 c 0.16645,0 0.86683,-0.91281 1.5564,-2.02847 0.68958,-1.11566 1.66298,-2.41177 2.16312,-2.88024 l 0.90934,-0.85178 0.74543,0.67461 c 0.40999,0.37104 1.3701,1.72608 2.13359,3.01122 0.76348,1.28513 2.01824,3.76446 2.78834,5.50961 l 1.4002,3.173 0.71979,2.78144 0.7198,2.78145 -0.0202,5.00719 -0.0202,5.00719 -0.69765,3.48009 c -0.38371,1.91405 -1.01083,4.39034 -1.39359,5.50287 -0.38277,1.11253 -1.01968,2.43435 -1.41536,2.93738 l -0.71943,0.9146 v 0.6697 c 0,0.36834 -0.37992,1.4185 -0.84427,2.33368 -0.46435,0.91518 -1.60401,2.69584 -2.53259,3.95702 l -1.68833,2.29306 -4.10812,4.05694 -4.10813,4.05695 -2.81573,1.65892 c -1.54866,0.91241 -4.00191,2.13389 -5.45168,2.7144 -1.44977,0.58052 -3.394171,1.25828 -4.320892,1.50614 l -1.684948,0.45065 -0.328364,-0.51922 -0.328364,-0.51923 -0.01022,-1.23472 c -0.0056,-0.67909 -0.106127,-1.59262 -0.223348,-2.03004 l -0.213128,-0.79533 -2.222204,2.07876 -2.222204,2.07877 -2.057768,0.9865 -2.057767,0.98651 z m 13.72231,-31.98129 1.447136,-0.006 1.41111,-0.7894 1.41111,-0.78939 0.79375,-1.57261 0.79375,-1.5726 v -1.87686 -1.87686 l -0.48641,-1.16416 -0.48642,-1.16416 -0.97227,-0.76479 -0.97227,-0.76478 h -1.733833 -1.733833 l -0.95262,0.49767 c -0.523941,0.27372 -1.379083,0.94841 -1.900316,1.4993 -0.521232,0.5509 -1.116545,1.44853 -1.322916,1.99474 l -0.375221,0.99311 5.48e-4,1.65273 5.48e-4,1.65272 0.616813,1.2277 0.616813,1.22769 1.198698,0.80078 1.198698,0.80078 z"
         id="path6890" /><path
         style="display:inline;fill:#fbce2b"
         d="m 109.45827,202.44644 -4.05695,-0.0348 -2.69656,-0.45396 c -1.48311,-0.24968 -4.340608,-0.9602 -6.349999,-1.57894 l -3.653439,-1.12497 -3.527778,-1.73591 -3.527778,-1.73591 -3.175001,-2.37021 -3.175,-2.37021 -3.615973,-3.56462 -3.615972,-3.56462 v -0.42028 -0.42028 l 1.322917,0.58019 c 0.727604,0.31911 2.592917,1.02519 4.145139,1.56908 1.552222,0.5439 4.012848,1.22742 5.468056,1.51894 1.455208,0.29152 4.187389,0.69881 6.071513,0.90509 1.884124,0.20628 4.685116,0.37506 6.224428,0.37506 1.539311,0 4.442756,-0.16798 6.452097,-0.37328 2.00935,-0.2053 5.00273,-0.67557 6.65196,-1.04504 1.64924,-0.36946 4.37487,-1.13959 6.05697,-1.7114 1.68209,-0.5718 4.53959,-1.78716 6.35,-2.70079 1.81041,-0.91364 4.4029,-2.4294 5.76109,-3.36836 1.3582,-0.93896 3.62534,-2.76322 5.0381,-4.05391 l 2.56866,-2.34671 2.22109,-2.87178 c 1.2216,-1.57949 2.78646,-3.82429 3.47747,-4.98846 0.69102,-1.16416 1.76494,-3.13328 2.3865,-4.37582 0.62156,-1.24254 1.66313,-3.88636 2.31462,-5.87516 0.65148,-1.9888 1.45496,-5.0203 1.78552,-6.73667 l 0.60101,-3.12068 -0.0126,-5.11528 -0.0126,-5.11528 -0.73809,-4.21289 -0.7381,-4.21288 0.20316,-0.19684 0.20317,-0.19683 1.40013,1.5875 1.40013,1.5875 2.25215,4.58611 2.25215,4.58611 1.23551,3.70417 1.23551,3.70416 0.54312,3.35139 0.54312,3.35139 -6.6e-4,3.70417 -6.6e-4,3.70417 -0.50967,3.38097 -0.50966,3.38097 -1.11989,3.49606 c -0.61594,1.92284 -1.72535,4.76702 -2.46535,6.32042 -0.74001,1.5534 -2.33587,4.33248 -3.54637,6.17575 l -2.2009,3.35139 -3.37687,3.35994 -3.37686,3.35994 -3.02889,2.01391 -3.02889,2.01392 -3.67389,1.75014 -3.67389,1.75015 -3.16448,0.91276 c -1.74046,0.50203 -4.59796,1.14527 -6.35,1.42945 l -3.18552,0.51667 z m -25.897323,-18.34072 -3.912404,-0.0339 -1.735297,-0.4071 -1.735297,-0.40711 -0.135056,-0.40759 -0.135055,-0.40758 1.283249,-0.42351 1.283249,-0.42351 1.222486,-1.07336 c 0.672367,-0.59034 1.467298,-1.54677 1.766513,-2.12539 l 0.544027,-1.05203 0.447526,-3.39352 0.447526,-3.39351 0.647517,-1.41111 c 0.356135,-0.77612 0.716325,-1.55273 0.800422,-1.72582 l 0.152904,-0.31471 -2.427357,0.23663 -2.427357,0.23664 -2.998612,-0.52574 -2.998611,-0.52574 -2.822223,-1.4077 -2.822222,-1.4077 -2.204861,-1.79687 -2.204862,-1.79686 v -0.51987 -0.51987 l 0.970139,0.25896 c 0.533577,0.14244 1.922639,0.25119 3.086806,0.24168 l 2.116667,-0.0173 1.555776,-0.8001 1.555775,-0.80009 2.677559,-2.73648 2.677558,-2.73648 1.719177,-0.87189 1.719178,-0.8719 -2.601122,-1.23712 -2.601123,-1.23713 -2.019403,-1.84841 -2.019403,-1.84841 -1.638943,-2.46532 -1.638943,-2.46533 -1.192349,-2.82716 c -0.655791,-1.55495 -1.192348,-3.05273 -1.192348,-3.32841 0,-0.27567 0.07177,-0.50123 0.159487,-0.50123 0.08772,0 1.178725,0.7125 2.42446,1.58333 l 2.264972,1.58333 1.824422,0.42112 1.824421,0.42113 3.071258,-0.62322 3.071259,-0.62323 2.822222,0.15048 c 1.552223,0.0828 3.217719,0.28349 3.701103,0.44606 l 0.878879,0.29559 -0.614904,-0.85715 c -0.338197,-0.47144 -1.252354,-2.08937 -2.03146,-3.5954 l -1.416556,-2.73823 -0.56171,-2.37705 -0.56171,-2.37704 0.20757,-4.93889 c 0.114164,-2.71639 0.329969,-5.46269 0.479568,-6.1029 l 0.271998,-1.16401 0.329371,-0.0707 0.329372,-0.0707 1.068345,2.64583 1.068345,2.64584 1.600895,1.59817 1.600895,1.59817 3.508871,1.50757 3.508872,1.50757 1.606407,1.48037 1.606405,1.48037 0.19783,-4.23334 0.19783,-4.23333 1.12307,-2.64583 c 0.61769,-1.45521 1.89151,-3.83646 2.83072,-5.29167 0.93921,-1.45521 2.46311,-3.47945 3.38645,-4.49831 l 1.67881,-1.85248 0.27375,0.16919 0.27375,0.16918 -0.29143,1.50691 c -0.16029,0.82879 -0.29487,2.7769 -0.29905,4.32912 l -0.008,2.82222 0.71555,1.57747 c 0.39356,0.86761 1.08218,2.05823 1.53028,2.64583 0.4481,0.58761 1.31324,2.05603 1.92253,3.26317 l 1.10781,2.1948 v 0.89201 0.892 h 0.30264 c 0.16645,0 0.86683,-0.91281 1.5564,-2.02847 0.68958,-1.11566 1.68038,-2.42535 2.20179,-2.91042 l 0.94801,-0.88194 1.1725,1.35017 1.1725,1.35018 1.58579,3.23594 c 0.87218,1.77976 1.91917,3.99434 2.32665,4.92129 0.40747,0.92694 0.98766,2.67319 1.2893,3.88055 l 0.54843,2.1952 0.19366,5.29167 0.19365,5.29167 -0.73985,3.71217 c -0.40691,2.04169 -1.05497,4.62809 -1.44012,5.74756 -0.38516,1.11946 -1.02402,2.44696 -1.4197,2.94999 l -0.71943,0.9146 v 0.6697 c 0,0.36834 -0.37992,1.4185 -0.84427,2.33368 -0.46435,0.91518 -1.57763,2.65936 -2.47396,3.87596 -0.89634,1.2166 -3.25485,3.84257 -5.24115,5.83548 l -3.61145,3.62349 -2.63619,1.72029 c -1.44991,0.94617 -3.75178,2.22914 -5.11528,2.85107 -1.3635,0.62192 -3.56476,1.48602 -4.891696,1.92022 l -2.412608,0.78946 -0.351173,-0.35117 -0.351173,-0.35117 -0.195632,-2.15747 -0.195633,-2.15747 H 96.07635 c -0.12713,0 -1.176644,0.8775 -2.332254,1.95 l -2.101108,1.95 -2.084819,1.04861 -2.084818,1.04861 z m 14.396017,-31.72194 1.447136,-0.006 1.41111,-0.7894 1.41111,-0.78939 0.79375,-1.57261 0.79375,-1.5726 v -1.87686 -1.87686 l -0.48641,-1.16416 -0.48642,-1.16416 -0.97227,-0.76479 -0.97227,-0.76478 h -1.733833 -1.733833 l -0.95262,0.49767 c -0.523941,0.27372 -1.379083,0.94841 -1.900316,1.4993 -0.521232,0.5509 -1.116545,1.44853 -1.322916,1.99474 l -0.375221,0.99311 5.48e-4,1.65273 5.48e-4,1.65272 0.616813,1.2277 0.616813,1.22769 1.198698,0.80078 1.198698,0.80078 z"
         id="path6888" /><path
         style="display:inline;fill:#faa210"
         d="m 109.45827,202.44644 -4.05695,-0.0348 -2.69656,-0.45396 c -1.48311,-0.24968 -4.340608,-0.9602 -6.349999,-1.57894 l -3.653439,-1.12497 -3.527778,-1.73591 -3.527778,-1.73591 -3.175001,-2.37021 -3.175,-2.37021 -3.615973,-3.56462 -3.615972,-3.56462 v -0.42028 -0.42028 l 1.322917,0.58019 c 0.727604,0.31911 2.592917,1.02519 4.145139,1.56908 1.552222,0.5439 4.012848,1.22742 5.468056,1.51894 1.455208,0.29152 4.187389,0.69881 6.071513,0.90509 1.884124,0.20628 4.685116,0.37506 6.224428,0.37506 1.539311,0 4.442756,-0.16798 6.452097,-0.37328 2.00935,-0.2053 5.00273,-0.67557 6.65196,-1.04504 1.64924,-0.36946 4.37487,-1.13959 6.05697,-1.7114 1.68209,-0.5718 4.53959,-1.78716 6.35,-2.70079 1.81041,-0.91364 4.4029,-2.4294 5.76109,-3.36836 1.3582,-0.93896 3.62534,-2.76322 5.0381,-4.05391 l 2.56866,-2.34671 2.22109,-2.87178 c 1.2216,-1.57949 2.78646,-3.82429 3.47747,-4.98846 0.69102,-1.16416 1.76494,-3.13328 2.3865,-4.37582 0.62156,-1.24254 1.66313,-3.88636 2.31462,-5.87516 0.65148,-1.9888 1.45496,-5.0203 1.78552,-6.73667 l 0.60101,-3.12068 -0.0126,-5.11528 -0.0126,-5.11528 -0.73809,-4.21289 -0.7381,-4.21288 0.20316,-0.19684 0.20317,-0.19683 1.40013,1.5875 1.40013,1.5875 2.25215,4.58611 2.25215,4.58611 1.23551,3.70417 1.23551,3.70416 0.54312,3.35139 0.54312,3.35139 -6.6e-4,3.70417 -6.6e-4,3.70417 -0.50967,3.38097 -0.50966,3.38097 -1.11989,3.49606 c -0.61594,1.92284 -1.72535,4.76702 -2.46535,6.32042 -0.74001,1.5534 -2.33587,4.33248 -3.54637,6.17575 l -2.2009,3.35139 -3.37687,3.35994 -3.37686,3.35994 -3.02889,2.01391 -3.02889,2.01392 -3.67389,1.75014 -3.67389,1.75015 -3.16448,0.91276 c -1.74046,0.50203 -4.59796,1.14527 -6.35,1.42945 l -3.18552,0.51667 z m -25.400005,-18.77416 -3.351389,0.0619 -1.675694,-0.36461 -1.675695,-0.36461 v -0.29084 c 0,-0.15996 0.327931,-0.39492 0.728735,-0.52213 0.400804,-0.12721 1.283282,-0.71819 1.961062,-1.31329 l 1.232326,-1.082 0.639893,-1.26812 0.639892,-1.26812 0.241354,-2.46945 c 0.132744,-1.35819 0.49384,-3.26319 0.802434,-4.23333 0.308595,-0.97014 0.853019,-2.13974 1.209831,-2.59911 l 0.648749,-0.83521 -0.179888,-0.29107 -0.179888,-0.29106 -3.607667,0.19672 -3.607666,0.19671 -2.262511,-0.59434 -2.262512,-0.59434 -2.499989,-1.25677 c -1.374994,-0.69123 -3.24729,-1.83109 -4.160657,-2.53304 -0.913367,-0.70195 -1.66743,-1.37494 -1.675695,-1.49553 l -0.01503,-0.21925 2.775231,-0.16066 2.775232,-0.16066 1.546296,-0.91811 1.546297,-0.91812 2.561253,-2.63849 2.561253,-2.63849 1.936664,-0.8027 1.936664,-0.80271 v -0.40851 -0.40852 l -2.38125,-0.93592 -2.38125,-0.93592 -2.039194,-1.60283 -2.039195,-1.60283 -1.625493,-2.19129 -1.625493,-2.19129 -1.397772,-2.89248 c -0.768775,-1.59087 -1.342166,-3.04821 -1.274202,-3.23853 l 0.12357,-0.34604 2.071148,1.28913 2.071147,1.28912 2.386152,0.13483 2.386152,0.13483 2.491508,-0.56668 2.491508,-0.56668 1.870638,0.0155 1.870638,0.0155 1.411111,0.50837 c 0.776111,0.2796 1.609549,0.51076 1.852083,0.51368 l 0.440973,0.005 v -0.46063 c 0,-0.25334 -0.409593,-1.0074 -0.910207,-1.67569 -0.500613,-0.66829 -1.362398,-2.10088 -1.915076,-3.18355 l -1.004869,-1.96849 -0.522402,-2.08846 c -0.287321,-1.14865 -0.619875,-3.27908 -0.739009,-4.73429 l -0.216606,-2.64583 0.346796,-2.92108 c 0.190738,-1.60659 0.446171,-3.08187 0.56763,-3.27839 l 0.220835,-0.35732 1.162072,2.39645 1.162073,2.39645 1.188965,1.12752 1.188964,1.12753 4.056945,1.91862 4.056945,1.91863 1.394512,1.45177 c 0.766983,0.79847 1.587703,1.45176 1.823813,1.45176 h 0.4293 l -0.18787,-3.26319 -0.18788,-3.2632 0.59593,-2.2718 c 0.32777,-1.2495 1.14642,-3.43185 1.81923,-4.84966 l 1.2233,-2.57785 2.12095,-2.81472 c 1.16652,-1.54809 2.27249,-2.90837 2.4577,-3.02284 l 0.33676,-0.20813 -0.2299,2.99088 -0.2299,2.99088 0.42383,1.70662 0.42382,1.70662 1.72429,2.64584 c 0.94836,1.4552 2.04651,3.36021 2.44032,4.23333 l 0.71603,1.5875 0.008,1.12571 0.008,1.12571 0.28143,0.17393 c 0.15478,0.0957 0.44538,0.0653 0.64577,-0.0674 0.20039,-0.13272 0.74411,-1.00982 1.20826,-1.94912 0.46415,-0.93929 1.36317,-2.28867 1.99782,-2.99861 l 1.15392,-1.2908 0.87385,1.05118 c 0.48062,0.57815 1.54921,2.30595 2.37464,3.83956 0.82543,1.53361 1.72138,3.36245 1.99099,4.0641 0.26962,0.70165 0.85853,2.3076 1.3087,3.56878 l 0.81847,2.29305 0.42095,3.175 0.42094,3.175 -0.20282,3.88056 -0.20282,3.88055 -0.57831,2.64584 c -0.31807,1.45521 -0.88299,3.51896 -1.25539,4.58611 -0.3724,1.06715 -0.96718,2.33715 -1.32174,2.82222 l -0.64467,0.88195 -0.23954,1.21196 -0.23954,1.21195 -1.6575,2.65937 -1.65751,2.65936 -3.36531,3.47977 c -1.85092,1.91388 -4.25336,4.16004 -5.33877,4.99148 -1.0854,0.83144 -3.05929,2.16662 -4.38643,2.96705 -1.32714,0.80044 -3.68962,1.94766 -5.24995,2.54939 -1.56033,0.60172 -3.333223,1.17458 -3.939764,1.27301 l -1.102801,0.17896 -0.224779,-1.3606 c -0.123628,-0.74832 -0.226525,-1.86716 -0.228661,-2.4863 l -0.0039,-1.12571 -0.284165,-0.17562 -0.284164,-0.17562 -2.355615,2.24256 -2.355614,2.24256 -2.034527,0.99905 -2.034527,0.99905 z M 99.4041,163.6443 l 2.46944,0.0219 2.46945,-0.51942 2.46944,-0.51942 2.29306,-1.13749 2.29306,-1.13748 3.01462,-3.01128 3.01463,-3.01127 1.12042,-2.31585 1.12042,-2.31585 0.57435,-2.44665 0.57435,-2.44665 -0.18357,-3.70417 -0.18356,-3.70417 -0.57467,-1.82157 -0.57468,-1.82156 -0.91828,-0.91829 -0.91828,-0.91828 -1.97454,-0.61154 -1.97455,-0.61154 -4.7625,0.0177 -4.7625,0.0177 -2.82222,1.1372 -2.822223,1.1372 -2.106368,1.4988 -2.106368,1.49881 -1.986153,2.36483 -1.986154,2.36483 -1.083614,2.21337 c -0.595988,1.21736 -1.334042,3.18879 -1.640119,4.38096 l -0.556503,2.16759 v 3.54769 3.54769 l 0.3745,1.74623 0.374501,1.74624 0.595638,0.5363 c 0.327602,0.29497 1.468764,0.88218 2.535917,1.3049 1.067153,0.42272 2.892778,0.97827 4.056945,1.23455 l 2.116667,0.46597 z"
         id="path6886" /><path
         style="display:inline;fill:#708ea7"
         d="m 109.45827,202.44644 -4.05695,-0.0348 -2.69656,-0.45396 c -1.48311,-0.24968 -4.340608,-0.9602 -6.349999,-1.57894 l -3.653439,-1.12497 -3.527778,-1.73591 -3.527778,-1.73591 -3.175001,-2.37021 -3.175,-2.37021 -3.615973,-3.56462 -3.615972,-3.56462 v -0.42028 -0.42028 l 1.322917,0.58019 c 0.727604,0.31911 2.592917,1.02519 4.145139,1.56908 1.552222,0.5439 4.012848,1.22742 5.468056,1.51894 1.455208,0.29152 4.187389,0.69881 6.071513,0.90509 1.884124,0.20628 4.685116,0.37506 6.224428,0.37506 1.539311,0 4.442756,-0.16798 6.452097,-0.37328 2.00935,-0.2053 5.00273,-0.67557 6.65196,-1.04504 1.64924,-0.36946 4.37487,-1.13959 6.05697,-1.7114 1.68209,-0.5718 4.53959,-1.78716 6.35,-2.70079 1.81041,-0.91364 4.4029,-2.4294 5.76109,-3.36836 1.3582,-0.93896 3.62534,-2.76322 5.0381,-4.05391 l 2.56866,-2.34671 2.22109,-2.87178 c 1.2216,-1.57949 2.78646,-3.82429 3.47747,-4.98846 0.69102,-1.16416 1.76494,-3.13328 2.3865,-4.37582 0.62156,-1.24254 1.66313,-3.88636 2.31462,-5.87516 0.65148,-1.9888 1.45496,-5.0203 1.78552,-6.73667 l 0.60101,-3.12068 -0.0126,-5.11528 -0.0126,-5.11528 -0.73809,-4.21289 -0.7381,-4.21288 0.20316,-0.19684 0.20317,-0.19683 1.40013,1.5875 1.40013,1.5875 2.25215,4.58611 2.25215,4.58611 1.23551,3.70417 1.23551,3.70416 0.54312,3.35139 0.54312,3.35139 -6.6e-4,3.70417 -6.6e-4,3.70417 -0.50967,3.38097 -0.50966,3.38097 -1.11989,3.49606 c -0.61594,1.92284 -1.72535,4.76702 -2.46535,6.32042 -0.74001,1.5534 -2.33587,4.33248 -3.54637,6.17575 l -2.2009,3.35139 -3.37687,3.35994 -3.37686,3.35994 -3.02889,2.01391 -3.02889,2.01392 -3.67389,1.75014 -3.67389,1.75015 -3.16448,0.91276 c -1.74046,0.50203 -4.59796,1.14527 -6.35,1.42945 l -3.18552,0.51667 z m -25.400005,-18.77416 -3.351389,0.0619 -1.675694,-0.36461 -1.675695,-0.36461 v -0.29084 c 0,-0.15996 0.327931,-0.39492 0.728735,-0.52213 0.400804,-0.12721 1.283282,-0.71819 1.961062,-1.31329 l 1.232326,-1.082 0.639893,-1.26812 0.639892,-1.26812 0.241354,-2.46945 c 0.132744,-1.35819 0.49384,-3.26319 0.802434,-4.23333 0.308595,-0.97014 0.853019,-2.13974 1.209831,-2.59911 l 0.648749,-0.83521 -0.179888,-0.29107 -0.179888,-0.29106 -3.607667,0.19672 -3.607666,0.19671 -2.262511,-0.59434 -2.262512,-0.59434 -2.499989,-1.25677 c -1.374994,-0.69123 -3.24729,-1.83109 -4.160657,-2.53304 -0.913367,-0.70195 -1.66743,-1.37494 -1.675695,-1.49553 l -0.01503,-0.21925 2.775231,-0.16066 2.775232,-0.16066 1.546296,-0.91811 1.546297,-0.91812 2.561253,-2.63849 2.561253,-2.63849 1.936664,-0.8027 1.936664,-0.80271 v -0.40851 -0.40852 l -2.38125,-0.93592 -2.38125,-0.93592 -2.039194,-1.60283 -2.039195,-1.60283 -1.625493,-2.19129 -1.625493,-2.19129 -1.397772,-2.89248 c -0.768775,-1.59087 -1.342166,-3.04821 -1.274202,-3.23853 l 0.12357,-0.34604 2.071148,1.28913 2.071147,1.28912 2.386152,0.13483 2.386152,0.13483 2.491508,-0.56668 2.491508,-0.56668 1.870638,0.0155 1.870638,0.0155 1.411111,0.50837 c 0.776111,0.2796 1.609549,0.51076 1.852083,0.51368 l 0.440973,0.005 v -0.56643 -0.56644 l -0.903403,-1.07363 c -0.496872,-0.5905 -1.351887,-1.96279 -1.900033,-3.04954 -0.548147,-1.08674 -1.180724,-2.6109 -1.405727,-3.38701 -0.225004,-0.77611 -0.553812,-2.85083 -0.730686,-4.61048 l -0.321588,-3.19936 0.315785,-3.06073 c 0.173682,-1.6834 0.418601,-3.22709 0.544264,-3.43042 l 0.22848,-0.36969 1.162072,2.39645 1.162073,2.39645 1.188965,1.12752 1.188964,1.12753 4.056945,1.91862 4.056945,1.91863 1.394512,1.45177 1.394513,1.45176 h 0.45963 0.45963 l -0.22276,-2.91041 -0.22275,-2.91042 0.42241,-2.02997 c 0.23232,-1.11648 0.8246,-3.02148 1.31617,-4.23333 l 0.89377,-2.20337 1.86251,-2.82222 c 1.02438,-1.55222 2.35306,-3.37785 2.95262,-4.05695 l 1.09012,-1.23472 -0.21721,3.05588 -0.21722,3.05588 0.42108,1.70662 0.42107,1.70662 1.51829,2.30095 c 0.83506,1.26553 1.81039,2.85303 2.1674,3.52778 0.35701,0.67476 0.82695,2.09026 1.04431,3.14557 l 0.39519,1.91874 0.39566,0.13189 0.39567,0.13189 0.96932,-1.97961 0.96932,-1.9796 1.16683,-1.30575 1.16684,-1.30575 0.87385,1.05118 c 0.48062,0.57815 1.54921,2.30595 2.37464,3.83956 0.82543,1.53361 1.72138,3.36245 1.99099,4.0641 0.26962,0.70165 0.8572,2.3076 1.30573,3.56878 l 0.81551,2.29305 0.33187,2.46945 0.33187,2.46944 -0.26167,1.5875 -0.26167,1.5875 -0.0442,-0.99477 -0.0442,-0.99477 -1.01503,-1.47467 c -0.55826,-0.81107 -1.78858,-2.19496 -2.73403,-3.0753 l -1.71899,-1.60063 -3.13027,-1.68788 -3.13028,-1.68788 -2.6334,-0.50386 c -1.44837,-0.27712 -3.39922,-0.50385 -4.33522,-0.50385 -0.936,0 -2.92674,0.23436 -4.42386,0.52081 l -2.72203,0.52081 -2.978236,1.44155 -2.97823,1.44154 -2.39794,2.35918 -2.397941,2.35917 -1.461603,2.26539 -1.461603,2.26539 -0.869019,2.75093 -0.869018,2.75093 -0.227662,2.74479 -0.227661,2.74479 0.399617,2.64583 0.399618,2.64584 1.230278,2.5192 c 0.676654,1.38556 1.944341,3.48919 2.817084,4.67473 l 1.586805,2.15552 2.145959,1.57976 2.145959,1.57977 3.410713,1.13699 3.41071,1.13699 4.88442,0.0168 4.88441,0.0169 -1.53302,1.33277 c -0.84317,0.73303 -2.72365,2.04612 -4.17886,2.91799 l -2.64583,1.58521 -2.81368,1.08587 c -1.54752,0.59723 -3.309943,1.1664 -3.916484,1.26483 l -1.102801,0.17896 -0.224779,-1.3606 c -0.123628,-0.74832 -0.226525,-1.86716 -0.228661,-2.4863 l -0.0039,-1.12571 -0.284165,-0.17562 -0.284164,-0.17562 -2.355615,2.24256 -2.355614,2.24256 -2.034527,0.99905 -2.034527,0.99905 z"
         id="path6885" /><path
         style="display:inline;fill:#f7700c"
         d="m 109.28188,202.09167 -4.58611,-0.0367 -2.58462,-0.47199 c -1.42155,-0.25959 -4.120297,-0.9508 -5.997228,-1.53602 l -3.4126,-1.06403 -2.998612,-1.45404 c -1.649236,-0.79973 -3.93828,-2.09528 -5.086764,-2.879 -1.148483,-0.78373 -3.450359,-2.57539 -5.115278,-3.98148 -1.664919,-1.40608 -3.797263,-3.38128 -4.738541,-4.38933 -0.941279,-1.00805 -1.635699,-1.90854 -1.543157,-2.00108 0.09254,-0.0925 1.044429,0.21923 2.115304,0.69282 1.070876,0.47359 2.808839,1.11161 3.86214,1.41781 1.053301,0.3062 3.029957,0.79125 4.392569,1.07788 1.362612,0.28664 4.565633,0.69841 7.117824,0.91505 l 4.640348,0.39389 4.626795,-0.39274 c 2.54474,-0.21601 5.84381,-0.62361 7.33128,-0.90577 1.48746,-0.28217 4.20759,-0.99939 6.04473,-1.59382 1.83714,-0.59444 4.7851,-1.76428 6.55102,-2.59965 1.76593,-0.83538 4.62343,-2.44898 6.35,-3.58579 l 3.13923,-2.06693 3.72451,-3.71292 3.7245,-3.71292 2.20255,-3.31326 2.20255,-3.31326 1.53293,-3.21313 c 0.84311,-1.76722 2.02489,-4.76055 2.62618,-6.65184 l 1.09324,-3.43871 0.52938,-3.26407 0.52938,-3.26407 -6.6e-4,-4.40972 -6.6e-4,-4.40972 -0.53151,-3.52778 c -0.29233,-1.94028 -0.61959,-3.80559 -0.72725,-4.14514 l -0.19574,-0.61736 0.28836,6.8e-4 c 0.1586,3.8e-4 0.79326,0.75444 1.41037,1.6757 0.6171,0.92125 1.99832,3.39109 3.06937,5.48852 1.07105,2.09743 2.28874,4.7168 2.70597,5.82083 0.41724,1.10403 1.15323,3.51545 1.63554,5.35872 l 0.87693,3.35138 0.17993,5.46806 0.17993,5.46806 -0.5447,3.55366 -0.54471,3.55367 -1.11047,3.50189 -1.11046,3.50189 -1.88498,3.63439 -1.88498,3.63438 -2.05025,2.84761 -2.05024,2.8476 -3.06893,2.92052 -3.06892,2.92051 -2.97384,1.97873 -2.97384,1.97873 -3.38757,1.58302 -3.38758,1.58302 -3.08275,0.89335 c -1.69552,0.49134 -4.51624,1.12585 -6.26828,1.41002 l -3.18552,0.51667 z m -25.223615,-18.41939 -3.351389,0.0619 -1.675694,-0.36461 -1.675695,-0.36461 v -0.29084 c 0,-0.15996 0.327931,-0.39492 0.728735,-0.52213 0.400804,-0.12721 1.283282,-0.71819 1.961062,-1.31329 l 1.232326,-1.082 0.639893,-1.26812 0.639892,-1.26812 0.241354,-2.46945 c 0.132744,-1.35819 0.49384,-3.26319 0.802434,-4.23333 0.308595,-0.97014 0.853019,-2.13974 1.209831,-2.59911 l 0.648749,-0.83521 -0.179888,-0.29107 -0.179888,-0.29106 -3.607667,0.19672 -3.607666,0.19671 -2.262511,-0.59434 -2.262512,-0.59434 -2.499989,-1.25677 c -1.374994,-0.69123 -3.24729,-1.83109 -4.160657,-2.53304 -0.913367,-0.70195 -1.66743,-1.37494 -1.675695,-1.49553 l -0.01503,-0.21925 2.775231,-0.16066 2.775232,-0.16066 1.546296,-0.91811 1.546297,-0.91812 2.561253,-2.63849 2.561253,-2.63849 1.936664,-0.8027 1.936664,-0.80271 v -0.40851 -0.40852 l -2.38125,-0.93592 -2.38125,-0.93592 -2.039194,-1.60283 -2.039195,-1.60283 -1.625493,-2.19129 -1.625493,-2.19129 -1.397772,-2.89248 c -0.768775,-1.59087 -1.342166,-3.04821 -1.274202,-3.23853 l 0.12357,-0.34604 2.071148,1.28913 2.071147,1.28912 2.386152,0.13483 2.386152,0.13483 2.491508,-0.56668 2.491508,-0.56668 1.870638,0.0155 1.870638,0.0155 1.411111,0.50837 c 0.776111,0.2796 1.609549,0.51076 1.852083,0.51368 l 0.440973,0.005 v -0.56643 -0.56644 l -0.903403,-1.07363 c -0.496872,-0.5905 -1.351887,-1.96279 -1.900033,-3.04954 -0.548147,-1.08674 -1.180724,-2.6109 -1.405727,-3.38701 -0.225004,-0.77611 -0.553812,-2.85083 -0.730686,-4.61048 l -0.321588,-3.19936 0.315785,-3.06073 c 0.173682,-1.6834 0.418601,-3.22709 0.544264,-3.43042 l 0.22848,-0.36969 1.162072,2.39645 1.162073,2.39645 1.188965,1.12752 1.188964,1.12753 4.056945,1.91862 4.056945,1.91863 1.394512,1.45177 1.394513,1.45176 h 0.45963 0.45963 l -0.22276,-2.91041 -0.22275,-2.91042 0.42241,-2.02997 c 0.23232,-1.11648 0.8246,-3.02148 1.31617,-4.23333 l 0.89377,-2.20337 1.86251,-2.82222 c 1.02438,-1.55222 2.35306,-3.37785 2.95262,-4.05695 l 1.09012,-1.23472 -0.21721,3.05588 -0.21722,3.05588 0.42108,1.70662 0.42107,1.70662 1.51829,2.30095 c 0.83506,1.26553 1.81039,2.85303 2.1674,3.52778 0.35701,0.67476 0.82695,2.09026 1.04431,3.14557 l 0.39519,1.91874 0.39566,0.13189 0.39567,0.13189 0.96932,-1.97961 0.96932,-1.9796 1.16683,-1.30575 1.16684,-1.30575 0.87385,1.05118 c 0.48062,0.57815 1.54921,2.30595 2.37464,3.83956 0.82543,1.53361 1.72138,3.36245 1.99099,4.0641 0.26962,0.70165 0.8572,2.3076 1.30573,3.56878 l 0.81551,2.29305 0.33187,2.46945 0.33187,2.46944 -0.26167,1.5875 -0.26167,1.5875 -0.0442,-0.99477 -0.0442,-0.99477 -1.01503,-1.47467 c -0.55826,-0.81107 -1.78858,-2.19496 -2.73403,-3.0753 l -1.71899,-1.60063 -3.13027,-1.68788 -3.13028,-1.68788 -2.6334,-0.50386 c -1.44837,-0.27712 -3.39922,-0.50385 -4.33522,-0.50385 -0.936,0 -2.92674,0.23436 -4.42386,0.52081 l -2.72203,0.52081 -2.978236,1.44155 -2.97823,1.44154 -2.39794,2.35918 -2.397941,2.35917 -1.461603,2.26539 -1.461603,2.26539 -0.869019,2.75093 -0.869018,2.75093 -0.227662,2.74479 -0.227661,2.74479 0.399617,2.64583 0.399618,2.64584 1.230278,2.5192 c 0.676654,1.38556 1.944341,3.48919 2.817084,4.67473 l 1.586805,2.15552 2.145959,1.57976 2.145959,1.57977 3.410713,1.13699 3.41071,1.13699 4.88442,0.0168 4.88441,0.0169 -1.53302,1.33277 c -0.84317,0.73303 -2.72365,2.04612 -4.17886,2.91799 l -2.64583,1.58521 -2.81368,1.08587 c -1.54752,0.59723 -3.309943,1.1664 -3.916484,1.26483 l -1.102801,0.17896 -0.224779,-1.3606 c -0.123628,-0.74832 -0.226525,-1.86716 -0.228661,-2.4863 l -0.0039,-1.12571 -0.284165,-0.17562 -0.284164,-0.17562 -2.355615,2.24256 -2.355614,2.24256 -2.034527,0.99905 -2.034527,0.99905 z"
         id="path6884" /><path
         style="display:inline;fill:#f05408"
         d="m 109.28188,202.09167 -4.58611,-0.0367 -2.58462,-0.47199 c -1.42155,-0.25959 -4.120297,-0.9508 -5.997228,-1.53602 l -3.4126,-1.06403 -2.998612,-1.45404 c -1.649236,-0.79973 -3.93828,-2.09528 -5.086764,-2.879 -1.148483,-0.78373 -3.450359,-2.57539 -5.115278,-3.98148 -1.664919,-1.40608 -3.797263,-3.38128 -4.738541,-4.38933 -0.941279,-1.00805 -1.635699,-1.90854 -1.543157,-2.00108 0.09254,-0.0925 1.044429,0.21923 2.115304,0.69282 1.070876,0.47359 2.808839,1.11161 3.86214,1.41781 1.053301,0.3062 3.029957,0.79125 4.392569,1.07788 1.362612,0.28664 4.565633,0.69841 7.117824,0.91505 l 4.640348,0.39389 4.626795,-0.39274 c 2.54474,-0.21601 5.84381,-0.62361 7.33128,-0.90577 1.48746,-0.28217 4.20759,-0.99939 6.04473,-1.59382 1.83714,-0.59444 4.7851,-1.76428 6.55102,-2.59965 1.76593,-0.83538 4.62343,-2.44898 6.35,-3.58579 l 3.13923,-2.06693 3.72451,-3.71292 3.7245,-3.71292 2.20255,-3.31326 2.20255,-3.31326 1.53293,-3.21313 c 0.84311,-1.76722 2.02489,-4.76055 2.62618,-6.65184 l 1.09324,-3.43871 0.52938,-3.26407 0.52938,-3.26407 -6.6e-4,-4.40972 -6.6e-4,-4.40972 -0.53151,-3.52778 c -0.29233,-1.94028 -0.61959,-3.80559 -0.72725,-4.14514 l -0.19574,-0.61736 0.28836,6.8e-4 c 0.1586,3.8e-4 0.79326,0.75444 1.41037,1.6757 0.6171,0.92125 1.99832,3.39109 3.06937,5.48852 1.07105,2.09743 2.28874,4.7168 2.70597,5.82083 0.41724,1.10403 1.15323,3.51545 1.63554,5.35872 l 0.87693,3.35138 0.17993,5.46806 0.17993,5.46806 -0.5447,3.55366 -0.54471,3.55367 -1.11047,3.50189 -1.11046,3.50189 -1.88498,3.63439 -1.88498,3.63438 -2.05025,2.84761 -2.05024,2.8476 -3.06893,2.92052 -3.06892,2.92051 -2.97384,1.97873 -2.97384,1.97873 -3.38757,1.58302 -3.38758,1.58302 -3.08275,0.89335 c -1.69552,0.49134 -4.51624,1.12585 -6.26828,1.41002 l -3.18552,0.51667 z m -25.223615,-18.42898 -3.351389,0.0946 -1.763889,-0.42893 -1.763889,-0.42893 1.615192,-0.94684 1.615193,-0.94685 0.985224,-1.48877 0.985224,-1.48877 0.486827,-3.48308 0.486827,-3.48308 0.542183,-1.29763 c 0.298201,-0.7137 0.790546,-1.57206 1.094099,-1.90749 l 0.551915,-0.60986 -0.151433,-0.45429 -0.151433,-0.4543 -4.094204,0.11308 -4.094204,0.11309 -2.033929,-0.59128 c -1.11866,-0.3252 -2.977225,-1.06745 -4.130144,-1.64944 -1.152918,-0.58199 -2.876833,-1.64 -3.830921,-2.35112 l -1.734706,-1.29295 2.480901,-0.25425 2.4809,-0.25425 1.684355,-0.86475 1.684356,-0.86475 2.469445,-2.52391 2.469444,-2.52392 1.234723,-0.63911 c 0.679097,-0.35151 1.869722,-0.82504 2.645833,-1.05229 0.776111,-0.22724 1.824575,-0.48903 2.329919,-0.58176 l 0.918807,-0.16859 0.186251,3.64931 0.18625,3.64931 0.88651,2.19477 c 0.48758,1.20713 1.419054,3.07979 2.069942,4.16147 l 1.183433,1.96669 1.763889,1.8271 1.763889,1.8271 2.209963,1.46428 2.209962,1.46428 2.02337,0.75971 c 1.11286,0.41784 3.214,1.06095 4.66921,1.42914 l 2.64583,0.66942 1.5875,0.0197 1.5875,0.0198 -1.20732,1.03224 c -0.66402,0.56773 -2.25152,1.57592 -3.52777,2.24041 -1.27626,0.66449 -3.48086,1.62228 -4.89913,2.12842 -1.418265,0.50614 -2.865931,0.92025 -3.217036,0.92025 h -0.638373 l -0.218665,-1.32291 c -0.120265,-0.72761 -0.220411,-1.82949 -0.222547,-2.44863 l -0.0039,-1.12571 -0.360099,-0.22255 -0.360098,-0.22255 -2.299106,2.2991 -2.299106,2.29911 -2.015102,0.96826 -2.015101,0.96826 z m 44.036085,-45.56889 -0.11525,0.94879 -2.62963,-2.70694 -2.62963,-2.70693 -2.39745,-1.20734 c -1.3186,-0.66404 -2.39745,-1.28787 -2.39745,-1.3863 0,-0.0984 0.41023,-0.82883 0.91164,-1.6231 0.5014,-0.79427 1.22361,-2.18018 1.60491,-3.0798 0.38129,-0.89961 0.88293,-2.07222 1.11475,-2.6058 0.23182,-0.53357 0.51655,-0.97014 0.63274,-0.97014 0.11619,0 0.84125,1.07157 1.61124,2.38125 0.77,1.30969 1.80936,3.34366 2.30968,4.51993 0.50033,1.17627 1.17744,3.34219 1.50469,4.81314 l 0.59501,2.67446 z"
         id="path6883" /><path
         style="display:inline;fill:#487093"
         d="m 109.28188,202.09167 -4.58611,-0.0367 -2.58462,-0.47199 c -1.42155,-0.25959 -4.120297,-0.9508 -5.997228,-1.53602 l -3.4126,-1.06403 -2.998612,-1.45404 c -1.649236,-0.79973 -3.93828,-2.09528 -5.086764,-2.879 -1.148483,-0.78373 -3.450359,-2.57539 -5.115278,-3.98148 -1.664919,-1.40608 -3.797263,-3.38128 -4.738541,-4.38933 -0.941279,-1.00805 -1.635699,-1.90854 -1.543157,-2.00108 0.09254,-0.0925 1.044429,0.21923 2.115304,0.69282 1.070876,0.47359 2.808839,1.11161 3.86214,1.41781 1.053301,0.3062 3.029957,0.79125 4.392569,1.07788 1.362612,0.28664 4.565633,0.69841 7.117824,0.91505 l 4.640348,0.39389 4.626795,-0.39274 c 2.54474,-0.21601 5.84381,-0.62361 7.33128,-0.90577 1.48746,-0.28217 4.20759,-0.99939 6.04473,-1.59382 1.83714,-0.59444 4.7851,-1.76428 6.55102,-2.59965 1.76593,-0.83538 4.62343,-2.44898 6.35,-3.58579 l 3.13923,-2.06693 3.72451,-3.71292 3.7245,-3.71292 2.20255,-3.31326 2.20255,-3.31326 1.53293,-3.21313 c 0.84311,-1.76722 2.02489,-4.76055 2.62618,-6.65184 l 1.09324,-3.43871 0.52938,-3.26407 0.52938,-3.26407 -6.6e-4,-4.40972 -6.6e-4,-4.40972 -0.53151,-3.52778 c -0.29233,-1.94028 -0.61959,-3.80559 -0.72725,-4.14514 l -0.19574,-0.61736 0.28836,6.8e-4 c 0.1586,3.8e-4 0.79326,0.75444 1.41037,1.6757 0.6171,0.92125 1.99832,3.39109 3.06937,5.48852 1.07105,2.09743 2.28874,4.7168 2.70597,5.82083 0.41724,1.10403 1.15323,3.51545 1.63554,5.35872 l 0.87693,3.35138 0.17993,5.46806 0.17993,5.46806 -0.5447,3.55366 -0.54471,3.55367 -1.11047,3.50189 -1.11046,3.50189 -1.88498,3.63439 -1.88498,3.63438 -2.05025,2.84761 -2.05024,2.8476 -3.06893,2.92052 -3.06892,2.92051 -2.97384,1.97873 -2.97384,1.97873 -3.38757,1.58302 -3.38758,1.58302 -3.08275,0.89335 c -1.69552,0.49134 -4.51624,1.12585 -6.26828,1.41002 l -3.18552,0.51667 z M 83.46275,183.3931 c -2.097814,-0.0225 -4.131707,-0.11729 -4.519763,-0.21063 -0.388055,-0.0933 -0.856368,-0.31305 -1.040694,-0.48824 l -0.335139,-0.31854 h 0.598706 0.598706 l 1.391514,-1.25715 1.391515,-1.25715 0.693334,-1.47687 0.693334,-1.47688 0.229309,-2.46945 0.229308,-2.46944 0.520406,-1.5875 0.520405,-1.5875 0.902034,-1.02633 0.902035,-1.02634 1.52001,-0.15169 1.52001,-0.15169 3.279752,3.03517 3.279752,3.03516 2.603238,1.23566 c 1.43178,0.6796 3.739248,1.55045 5.127708,1.93521 1.38846,0.38477 3.08328,0.71073 3.76628,0.72437 0.683,0.0136 1.53886,0.14152 1.90192,0.28419 l 0.66011,0.2594 -0.84551,0.554 c -0.46503,0.3047 -2.11146,1.18628 -3.65872,1.95907 -1.54727,0.77279 -3.88101,1.75667 -5.18611,2.1864 l -2.372894,0.78133 -0.333449,-0.20608 -0.33345,-0.20609 -0.247489,-2.37754 c -0.13612,-1.30764 -0.321089,-2.50371 -0.411043,-2.65792 l -0.163553,-0.28038 -2.56364,2.43521 -2.56364,2.43521 -1.970042,0.93198 -1.970042,0.93198 z m 44.44717,-45.43616 -0.28359,0.28094 -1.65995,-1.6554 -1.65995,-1.6554 0.32862,-1.41111 c 0.18073,-0.77611 0.3324,-1.91768 0.33703,-2.53682 l 0.008,-1.12571 0.33776,-0.20874 0.33775,-0.20875 0.5014,0.98168 c 0.27577,0.53992 0.84671,2.39393 1.26876,4.12002 l 0.76736,3.13835 z"
         id="path6882" /><path
         style="display:inline;fill:#366086"
         d="m 109.52094,202.09708 -3.06128,-0.0342 -2.99861,-0.46977 c -1.64924,-0.25837 -4.258291,-0.81631 -5.797893,-1.23985 -1.539602,-0.42355 -4.032332,-1.29012 -5.539399,-1.92572 -1.507068,-0.6356 -3.739894,-1.71602 -4.961836,-2.40093 -1.221941,-0.68491 -2.856712,-1.80372 -3.632823,-2.48625 l -1.411112,-1.24095 3.658362,1.37592 c 2.012099,0.75675 5.028349,1.73859 6.702778,2.18187 l 3.044417,0.80597 h 7.231946 7.23194 l 3.61065,-0.97476 3.61065,-0.97476 3.09213,-1.36693 c 1.70067,-0.7518 4.16556,-1.98003 5.47753,-2.7294 1.31196,-0.74937 3.6676,-2.31499 5.23474,-3.47916 l 2.84934,-2.11666 3.05727,-3.175 3.05727,-3.175 2.22473,-3.26644 2.22473,-3.26644 2.07818,-4.31828 c 1.143,-2.37506 2.47,-5.53008 2.94888,-7.01116 0.47888,-1.48108 1.19225,-4.17983 1.58527,-5.99722 0.39301,-1.8174 0.89941,-5.07529 1.12533,-7.23977 l 0.41077,-3.93541 -0.13017,-2.86628 -0.13016,-2.86627 0.43211,0.59094 c 0.23766,0.32502 0.82778,1.79828 1.31138,3.27391 0.4836,1.47563 1.1556,4.11172 1.49334,5.85797 l 0.61407,3.175 -0.004,5.11528 -0.004,5.11528 -0.59884,2.99861 c -0.32936,1.64923 -1.09257,4.50673 -1.69603,6.35 -0.60346,1.84326 -1.65118,4.46264 -2.32826,5.82083 -0.67708,1.3582 -2.12259,3.81882 -3.21224,5.46806 l -1.9812,2.99861 -2.8275,2.94778 -2.82749,2.94778 -2.73308,2.05943 c -1.50319,1.13269 -3.77463,2.64191 -5.04764,3.35381 -1.27301,0.71191 -3.5373,1.80838 -5.03174,2.4366 -1.49445,0.62822 -4.30468,1.55401 -6.24496,2.0573 -1.94028,0.5033 -4.76958,1.08264 -6.28733,1.28744 l -2.75956,0.37236 z M 83.46275,183.3931 c -2.097814,-0.0225 -4.131707,-0.11729 -4.519763,-0.21063 -0.388055,-0.0933 -0.856368,-0.31305 -1.040694,-0.48824 l -0.335139,-0.31854 h 0.598706 0.598706 l 1.391514,-1.25715 1.391515,-1.25715 0.693334,-1.47687 0.693334,-1.47688 0.229309,-2.46945 0.229308,-2.46944 0.520406,-1.5875 0.520405,-1.5875 0.902034,-1.02633 0.902035,-1.02634 1.52001,-0.15169 1.52001,-0.15169 3.279752,3.03517 3.279752,3.03516 2.603238,1.23566 c 1.43178,0.6796 3.739248,1.55045 5.127708,1.93521 1.38846,0.38477 3.08328,0.71073 3.76628,0.72437 0.683,0.0136 1.53886,0.14152 1.90192,0.28419 l 0.66011,0.2594 -0.84551,0.554 c -0.46503,0.3047 -2.11146,1.18628 -3.65872,1.95907 -1.54727,0.77279 -3.88101,1.75667 -5.18611,2.1864 l -2.372894,0.78133 -0.333449,-0.20608 -0.33345,-0.20609 -0.247489,-2.37754 c -0.13612,-1.30764 -0.321089,-2.50371 -0.411043,-2.65792 l -0.163553,-0.28038 -2.56364,2.43521 -2.56364,2.43521 -1.970042,0.93198 -1.970042,0.93198 z m 44.44717,-45.43616 -0.28359,0.28094 -1.65995,-1.6554 -1.65995,-1.6554 0.32862,-1.41111 c 0.18073,-0.77611 0.3324,-1.91768 0.33703,-2.53682 l 0.008,-1.12571 0.33776,-0.20874 0.33775,-0.20875 0.5014,0.98168 c 0.27577,0.53992 0.84671,2.39393 1.26876,4.12002 l 0.76736,3.13835 z"
         id="path6881" /><path
         style="display:inline;fill:#da3708"
         d="m 109.28188,201.73889 -4.23333,-0.0367 -2.63958,-0.48119 c -1.45177,-0.26465 -4.026907,-0.87914 -5.722532,-1.36553 l -3.082954,-0.88433 -3.273304,-1.56698 c -1.800317,-0.86183 -3.670178,-1.89913 -4.155248,-2.30511 l -0.881944,-0.73814 0.529166,0.16087 c 0.291042,0.0885 1.851298,0.56817 3.467235,1.06596 1.615938,0.4978 4.394063,1.14123 6.173612,1.42985 l 3.235544,0.52476 h 3.880555 3.88056 l 3.175,-0.52025 c 1.74625,-0.28613 4.36562,-0.84783 5.82083,-1.24822 l 2.64583,-0.72798 4.93889,-2.44242 4.93889,-2.44243 3.02885,-2.29883 3.02885,-2.29884 3.21881,-3.32725 3.21882,-3.32726 2.5354,-3.82281 2.5354,-3.82282 1.54971,-3.28743 c 0.85234,-1.80809 1.84973,-4.10997 2.21643,-5.11528 0.36669,-1.00531 0.98027,-2.93909 1.36351,-4.29729 0.38323,-1.35819 0.94784,-3.66007 1.25468,-5.11528 0.30685,-1.45521 0.71753,-4.07458 0.91263,-5.82083 0.19511,-1.74625 0.3661,-4.04813 0.37999,-5.11528 l 0.0253,-1.94028 0.36274,0.88195 c 0.19951,0.48507 0.75673,2.39007 1.23827,4.23333 l 0.87553,3.35139 0.18528,4.93889 0.18527,4.93889 -0.54535,3.55367 -0.54536,3.55366 -1.11047,3.50189 -1.11046,3.50189 -1.88498,3.63439 -1.88498,3.63439 -2.05024,2.8476 -2.05025,2.8476 -3.06892,2.92052 -3.06893,2.92052 -2.95858,1.96857 -2.95857,1.96857 -3.67389,1.73862 -3.67389,1.73862 -2.73039,0.73475 c -1.50171,0.40411 -4.20046,0.97317 -5.99722,1.26458 l -3.26684,0.52983 z M 83.46275,183.3931 c -2.097814,-0.0225 -4.131707,-0.11729 -4.519763,-0.21063 -0.388055,-0.0933 -0.856368,-0.31305 -1.040694,-0.48824 l -0.335139,-0.31854 h 0.598706 0.598706 l 1.391514,-1.25715 1.391515,-1.25715 0.693334,-1.47687 0.693334,-1.47688 0.229309,-2.46945 0.229308,-2.46944 0.520406,-1.5875 0.520405,-1.5875 0.902034,-1.02633 0.902035,-1.02634 1.52001,-0.15169 1.52001,-0.15169 3.279752,3.03517 3.279752,3.03516 2.603238,1.23566 c 1.43178,0.6796 3.739248,1.55045 5.127708,1.93521 1.38846,0.38477 3.08328,0.71073 3.76628,0.72437 0.683,0.0136 1.53886,0.14152 1.90192,0.28419 l 0.66011,0.2594 -0.84551,0.554 c -0.46503,0.3047 -2.11146,1.18628 -3.65872,1.95907 -1.54727,0.77279 -3.88101,1.75667 -5.18611,2.1864 l -2.372894,0.78133 -0.333449,-0.20608 -0.33345,-0.20609 -0.247489,-2.37754 c -0.13612,-1.30764 -0.321089,-2.50371 -0.411043,-2.65792 l -0.163553,-0.28038 -2.56364,2.43521 -2.56364,2.43521 -1.970042,0.93198 -1.970042,0.93198 z m 44.44717,-45.43616 -0.28359,0.28094 -1.65995,-1.6554 -1.65995,-1.6554 0.32862,-1.41111 c 0.18073,-0.77611 0.3324,-1.91768 0.33703,-2.53682 l 0.008,-1.12571 0.33776,-0.20874 0.33775,-0.20875 0.5014,0.98168 c 0.27577,0.53992 0.84671,2.39393 1.26876,4.12002 l 0.76736,3.13835 z"
         id="path6880" /><path
         style="display:inline;fill:#24527a"
         d="m 109.28188,201.73889 -4.23333,-0.0367 -2.63958,-0.48119 c -1.45177,-0.26465 -4.026907,-0.87914 -5.722532,-1.36553 l -3.082954,-0.88433 -3.273304,-1.56698 c -1.800317,-0.86183 -3.670178,-1.89913 -4.155248,-2.30511 l -0.881944,-0.73814 0.529166,0.16087 c 0.291042,0.0885 1.851298,0.56817 3.467235,1.06596 1.615938,0.4978 4.394063,1.14123 6.173612,1.42985 l 3.235544,0.52476 h 3.880555 3.88056 l 3.175,-0.52025 c 1.74625,-0.28613 4.36562,-0.84783 5.82083,-1.24822 l 2.64583,-0.72798 4.93889,-2.44242 4.93889,-2.44243 3.02885,-2.29883 3.02885,-2.29884 3.21881,-3.32725 3.21882,-3.32726 2.5354,-3.82281 2.5354,-3.82282 1.54971,-3.28743 c 0.85234,-1.80809 1.84973,-4.10997 2.21643,-5.11528 0.36669,-1.00531 0.98027,-2.93909 1.36351,-4.29729 0.38323,-1.35819 0.94784,-3.66007 1.25468,-5.11528 0.30685,-1.45521 0.71753,-4.07458 0.91263,-5.82083 0.19511,-1.74625 0.3661,-4.04813 0.37999,-5.11528 l 0.0253,-1.94028 0.36274,0.88195 c 0.19951,0.48507 0.75673,2.39007 1.23827,4.23333 l 0.87553,3.35139 0.18528,4.93889 0.18527,4.93889 -0.54535,3.55367 -0.54536,3.55366 -1.11047,3.50189 -1.11046,3.50189 -1.88498,3.63439 -1.88498,3.63439 -2.05024,2.8476 -2.05025,2.8476 -3.06892,2.92052 -3.06893,2.92052 -2.95858,1.96857 -2.95857,1.96857 -3.67389,1.73862 -3.67389,1.73862 -2.73039,0.73475 c -1.50171,0.40411 -4.20046,0.97317 -5.99722,1.26458 l -3.26684,0.52983 z"
         id="path6879" /></g></g></svg>
